<?xml version="1.0" encoding="UTF-8" standalone="no"?>
<svg
   xmlns:dc="http://purl.org/dc/elements/1.1/"
   xmlns:cc="http://creativecommons.org/ns#"
   xmlns:rdf="http://www.w3.org/1999/02/22-rdf-syntax-ns#"
   xmlns:svg="http://www.w3.org/2000/svg"
   xmlns="http://www.w3.org/2000/svg"
   viewBox="0 0 2666.6667 533.33331"
   height="533.33331"
   width="2666.6667"
   xml:space="preserve"
   id="svg2"
   version="1.1"><metadata
     id="metadata8"><rdf:RDF><cc:Work
         rdf:about=""><dc:format>image/svg+xml</dc:format><dc:type
           rdf:resource="http://purl.org/dc/dcmitype/StillImage" /></cc:Work></rdf:RDF></metadata><defs
     id="defs6"><clipPath
       id="clipPath26"
       clipPathUnits="userSpaceOnUse"><path
         id="path24"
         d="M 0,400 H 2000 V 0 H 0 Z" /></clipPath></defs><g
     transform="matrix(1.3333333,0,0,-1.3333333,0,533.33333)"
     id="g10"><g
       transform="translate(456.1343,264.8057)"
       id="g12"><path
         id="path14"
         style="fill:#ffffff;fill-opacity:1;fill-rule:nonzero;stroke:none"
         d="m 0,0 -4.481,-31.591 11.079,-0.055 -21.977,-153.616 -11.078,0.055 -4.717,-32.334 68.404,0.725 4.499,31.265 -11.33,0.073 21.976,153.607 11.566,-0.055 4.5,31.582 z m 85.737,-7.798 -6.488,-44.757 -11.333,0.054 -18.921,-127.862 10.066,-12.633 -6.253,-45.509 -79.501,-0.652 -11.747,15.039 6.76,46.303 11.059,-0.054 18.705,127.853 -9.813,11.097 6.471,46.608 80.928,-0.397 z" /></g><g
       transform="translate(456.1343,264.8057)"
       id="g16"><path
         id="path18"
         style="fill:none;stroke:#000000;stroke-width:1;stroke-linecap:butt;stroke-linejoin:miter;stroke-miterlimit:10;stroke-dasharray:none;stroke-opacity:1"
         d="m 0,0 -4.481,-31.591 11.079,-0.055 -21.977,-153.616 -11.078,0.055 -4.717,-32.334 68.404,0.725 4.499,31.265 -11.33,0.073 21.976,153.607 11.566,-0.055 4.5,31.582 z m 85.737,-7.798 -6.488,-44.757 -11.333,0.054 -18.921,-127.862 10.066,-12.633 -6.253,-45.509 -79.501,-0.652 -11.747,15.039 6.76,46.303 11.059,-0.054 18.705,127.853 -9.813,11.097 6.471,46.608 80.928,-0.397 z" /></g><g
       id="g20"><g
         clip-path="url(#clipPath26)"
         id="g22"><g
           transform="translate(618.8784,92.4844)"
           id="g28"><path
             id="path30"
             style="fill:#ffffff;fill-opacity:1;fill-rule:nonzero;stroke:none"
             d="m 0,0 c -0.851,-5.332 -2.008,-8.964 -3.544,-10.879 -1.555,-1.953 -4.247,-2.892 -8.097,-2.892 l -10.336,0.053 22.176,153.626 10.121,-0.045 c 3.215,-0.027 5.401,-0.605 6.613,-1.726 1.21,-1.129 1.788,-3.136 1.788,-5.991 -0.018,-0.822 -0.071,-1.635 -0.143,-2.459 -0.072,-0.821 -0.199,-1.734 -0.361,-2.754 z m -52.882,171.778 -4.499,-31.59 11.585,-0.054 -21.958,-153.615 -11.566,0.052 -4.502,-31.282 86.966,-0.435 c 6.433,-0.017 12.054,0.616 16.88,1.917 4.807,1.301 8.927,3.505 12.325,6.541 3.38,3.055 6.125,7.194 8.24,12.399 2.115,5.205 3.759,11.782 4.934,19.771 l 18.705,132.453 c 0.345,2.856 0.669,5.557 0.995,8.124 0.36,2.556 0.506,4.952 0.523,7.202 0.055,10.843 -2.529,18.225 -7.717,22.138 -5.205,3.904 -13.355,5.901 -24.433,5.946 z m 86.531,7.23 c 5.295,-0.019 10.789,-0.958 16.482,-2.828 5.693,-1.87 10.898,-4.817 15.615,-8.82 4.7,-4.021 8.568,-9.163 11.603,-15.416 3.019,-6.253 4.518,-13.771 4.465,-22.573 -0.019,-5.312 -0.453,-10.834 -1.284,-16.554 L 61.554,-19.645 c -1.303,-8.982 -3.143,-16.464 -5.512,-22.374 -2.367,-5.91 -5.439,-10.663 -9.235,-14.222 -3.796,-3.561 -8.386,-6.037 -13.771,-7.447 -5.369,-1.41 -11.694,-3.146 -18.905,-3.11 l -93.47,0.47 -11.746,13.99 6.504,46.302 11.548,-0.073 18.705,127.565 -10.282,11.404 6.704,46.609 z" /></g><g
           transform="translate(618.8784,92.4844)"
           id="g32"><path
             id="path34"
             style="fill:none;stroke:#000000;stroke-width:1;stroke-linecap:butt;stroke-linejoin:miter;stroke-miterlimit:10;stroke-dasharray:none;stroke-opacity:1"
             d="m 0,0 c -0.851,-5.332 -2.008,-8.964 -3.544,-10.879 -1.555,-1.953 -4.247,-2.892 -8.097,-2.892 l -10.336,0.053 22.176,153.626 10.121,-0.045 c 3.215,-0.027 5.401,-0.605 6.613,-1.726 1.21,-1.129 1.788,-3.136 1.788,-5.991 -0.018,-0.822 -0.071,-1.635 -0.143,-2.459 -0.072,-0.821 -0.199,-1.734 -0.361,-2.754 z m -52.882,171.778 -4.499,-31.59 11.585,-0.054 -21.958,-153.615 -11.566,0.052 -4.502,-31.282 86.966,-0.435 c 6.433,-0.017 12.054,0.616 16.88,1.917 4.807,1.301 8.927,3.505 12.325,6.541 3.38,3.055 6.125,7.194 8.24,12.399 2.115,5.205 3.759,11.782 4.934,19.771 l 18.705,132.453 c 0.345,2.856 0.669,5.557 0.995,8.124 0.36,2.556 0.506,4.952 0.523,7.202 0.055,10.843 -2.529,18.225 -7.717,22.138 -5.205,3.904 -13.355,5.901 -24.433,5.946 z m 86.531,7.23 c 5.295,-0.019 10.789,-0.958 16.482,-2.828 5.693,-1.87 10.898,-4.817 15.615,-8.82 4.7,-4.021 8.568,-9.163 11.603,-15.416 3.019,-6.253 4.518,-13.771 4.465,-22.573 -0.019,-5.312 -0.453,-10.834 -1.284,-16.554 L 61.554,-19.645 c -1.303,-8.982 -3.143,-16.464 -5.512,-22.374 -2.367,-5.91 -5.439,-10.663 -9.235,-14.222 -3.796,-3.561 -8.386,-6.037 -13.771,-7.447 -5.369,-1.41 -11.694,-3.146 -18.905,-3.11 l -93.47,0.47 -11.746,13.99 6.504,46.302 11.548,-0.073 18.705,127.565 -10.282,11.404 6.704,46.609 z" /></g><g
           transform="translate(731.4863,263.4404)"
           id="g36"><path
             id="path38"
             style="fill:#ffffff;fill-opacity:1;fill-rule:nonzero;stroke:none"
             d="m 0,0 -4.48,-31.581 11.583,-0.054 -21.975,-153.635 -11.566,0.073 -4.501,-31.284 124.067,-0.596 10.229,71.423 -23.602,0.126 -5.476,-38.947 -43.374,0.218 8.981,61.337 13.012,-0.072 -4.263,-30.362 17.838,-0.09 13.209,91.077 -17.82,0.081 -4.5,-31.898 -13.248,0.072 8.731,61.329 41.91,-0.207 -4.987,-37.411 23.366,-0.109 9.976,69.906 z m 140.405,-8.051 -11.71,-83.423 -34.952,0.182 -6.723,-46.591 23.601,-0.127 10.049,-15.091 -12.216,-84.615 -134.93,0.652 -11.712,12.957 6.508,46.301 11.548,-0.054 18.687,127.547 -10.301,11.404 6.722,46.608 135.399,-0.669 z" /></g><g
           transform="translate(731.4863,263.4404)"
           id="g40"><path
             id="path42"
             style="fill:none;stroke:#000000;stroke-width:1;stroke-linecap:butt;stroke-linejoin:miter;stroke-miterlimit:10;stroke-dasharray:none;stroke-opacity:1"
             d="m 0,0 -4.48,-31.581 11.583,-0.054 -21.975,-153.635 -11.566,0.073 -4.501,-31.284 124.067,-0.596 10.229,71.423 -23.602,0.126 -5.476,-38.947 -43.374,0.218 8.981,61.337 13.012,-0.072 -4.263,-30.362 17.838,-0.09 13.209,91.077 -17.82,0.081 -4.5,-31.898 -13.248,0.072 8.731,61.329 41.91,-0.207 -4.987,-37.411 23.366,-0.109 9.976,69.906 z m 140.405,-8.051 -11.71,-83.423 -34.952,0.182 -6.723,-46.591 23.601,-0.127 10.049,-15.091 -12.216,-84.615 -134.93,0.652 -11.712,12.957 6.508,46.301 11.548,-0.054 18.687,127.547 -10.301,11.404 6.722,46.608 135.399,-0.669 z" /></g><g
           transform="translate(964.0244,224.251)"
           id="g44"><path
             id="path46"
             style="fill:#ffffff;fill-opacity:1;fill-rule:nonzero;stroke:none"
             d="m 0,0 -20.204,-137.906 c -0.849,-5.927 -5.746,-8.856 -14.747,-8.819 -8.041,0.036 -12.036,2.421 -12.018,7.121 0.019,0.813 0.109,1.427 0.252,1.843 L -26.494,0.136 c 0.326,3.062 1.555,5.348 3.65,6.876 2.099,1.527 5.622,2.268 10.593,2.25 C -4.048,9.217 0.037,6.642 0,1.536 Z m -92.494,-139.678 c -0.488,-2.873 -0.759,-5.421 -0.759,-7.679 -0.037,-5.116 0.904,-9.561 2.82,-13.356 1.915,-3.796 5.006,-6.994 9.216,-9.561 4.266,-2.584 9.797,-4.499 16.61,-5.765 6.831,-1.265 15.198,-1.915 25.175,-1.97 10.914,-0.053 20.167,0.669 27.813,2.187 7.645,1.481 13.916,3.813 18.848,6.958 4.9,3.127 8.659,7.103 11.243,11.91 2.602,4.771 4.409,10.337 5.385,16.698 L 44.82,1.925 c 0.326,1.428 0.489,2.755 0.507,3.984 v 3.687 c 0.036,5.105 -0.868,9.606 -2.712,13.509 -1.806,3.904 -4.806,7.184 -8.964,9.868 -4.156,2.675 -9.577,4.645 -16.227,5.91 -6.669,1.247 -14.911,1.906 -24.688,1.961 -10.934,0.054 -20.241,-0.66 -27.958,-2.169 -7.716,-1.491 -14.079,-3.814 -19.066,-6.958 -5.006,-3.154 -8.839,-7.12 -11.513,-11.909 -2.675,-4.799 -4.518,-10.366 -5.512,-16.7 z M -7.229,48.516 c 8.351,-0.037 16.61,-0.905 24.815,-2.577 8.168,-1.689 15.471,-4.581 21.867,-8.701 6.399,-4.121 11.604,-9.57 15.578,-16.338 3.995,-6.777 6.11,-15.171 6.38,-25.193 0,-1.644 -0.018,-3.226 -0.018,-4.762 -0.017,-1.536 -0.181,-3.017 -0.505,-4.454 L 40.177,-155.382 c -0.994,-7.355 -2.947,-13.754 -5.873,-19.139 -2.948,-5.421 -7.049,-9.904 -12.363,-13.446 -5.313,-3.542 -12.126,-6.234 -20.386,-8.024 -8.295,-1.808 -18.308,-2.675 -30.018,-2.62 -9,0.053 -17.728,0.957 -26.241,2.729 -8.513,1.771 -16.031,4.698 -22.592,8.71 -6.595,4.013 -11.855,9.254 -15.849,15.723 -3.975,6.47 -5.944,14.495 -5.891,24.109 0.018,3.072 0.289,6.036 0.759,8.892 l 20.964,143.12 c 1.012,7.156 3.036,13.49 6.108,19.003 3.072,5.503 7.41,10.084 12.977,13.734 5.53,3.652 12.506,6.426 20.855,8.332 8.367,1.907 18.416,2.828 30.144,2.775" /></g><g
           transform="translate(964.0244,224.251)"
           id="g48"><path
             id="path50"
             style="fill:none;stroke:#000000;stroke-width:1;stroke-linecap:butt;stroke-linejoin:miter;stroke-miterlimit:10;stroke-dasharray:none;stroke-opacity:1"
             d="m 0,0 -20.204,-137.906 c -0.849,-5.927 -5.746,-8.856 -14.747,-8.819 -8.041,0.036 -12.036,2.421 -12.018,7.121 0.019,0.813 0.109,1.427 0.252,1.843 L -26.494,0.136 c 0.326,3.062 1.555,5.348 3.65,6.876 2.099,1.527 5.622,2.268 10.593,2.25 C -4.048,9.217 0.037,6.642 0,1.536 Z m -92.494,-139.678 c -0.488,-2.873 -0.759,-5.421 -0.759,-7.679 -0.037,-5.116 0.904,-9.561 2.82,-13.356 1.915,-3.796 5.006,-6.994 9.216,-9.561 4.266,-2.584 9.797,-4.499 16.61,-5.765 6.831,-1.265 15.198,-1.915 25.175,-1.97 10.914,-0.053 20.167,0.669 27.813,2.187 7.645,1.481 13.916,3.813 18.848,6.958 4.9,3.127 8.659,7.103 11.243,11.91 2.602,4.771 4.409,10.337 5.385,16.698 L 44.82,1.925 c 0.326,1.428 0.489,2.755 0.507,3.984 v 3.687 c 0.036,5.105 -0.868,9.606 -2.712,13.509 -1.806,3.904 -4.806,7.184 -8.964,9.868 -4.156,2.675 -9.577,4.645 -16.227,5.91 -6.669,1.247 -14.911,1.906 -24.688,1.961 -10.934,0.054 -20.241,-0.66 -27.958,-2.169 -7.716,-1.491 -14.079,-3.814 -19.066,-6.958 -5.006,-3.154 -8.839,-7.12 -11.513,-11.909 -2.675,-4.799 -4.518,-10.366 -5.512,-16.7 z M -7.229,48.516 c 8.351,-0.037 16.61,-0.905 24.815,-2.577 8.168,-1.689 15.471,-4.581 21.867,-8.701 6.399,-4.121 11.604,-9.57 15.578,-16.338 3.995,-6.777 6.11,-15.171 6.38,-25.193 0,-1.644 -0.018,-3.226 -0.018,-4.762 -0.017,-1.536 -0.181,-3.017 -0.505,-4.454 L 40.177,-155.382 c -0.994,-7.355 -2.947,-13.754 -5.873,-19.139 -2.948,-5.421 -7.049,-9.904 -12.363,-13.446 -5.313,-3.542 -12.126,-6.234 -20.386,-8.024 -8.295,-1.808 -18.308,-2.675 -30.018,-2.62 -9,0.053 -17.728,0.957 -26.241,2.729 -8.513,1.771 -16.031,4.698 -22.592,8.71 -6.595,4.013 -11.855,9.254 -15.849,15.723 -3.975,6.47 -5.944,14.495 -5.891,24.109 0.018,3.072 0.289,6.036 0.759,8.892 l 20.964,143.12 c 1.012,7.156 3.036,13.49 6.108,19.003 3.072,5.503 7.41,10.084 12.977,13.734 5.53,3.652 12.506,6.426 20.855,8.332 8.367,1.907 18.416,2.828 30.144,2.775 z" /></g><g
           transform="translate(1342.8027,224.542)"
           id="g52"><path
             id="path54"
             style="fill:#ffffff;fill-opacity:1;fill-rule:nonzero;stroke:none"
             d="m 0,0 -20.223,-136.837 c -0.833,-5.929 -5.748,-8.892 -14.728,-8.82 -8.026,0.037 -12.038,2.386 -12.02,7.102 0.019,0.814 0.09,1.429 0.254,1.844 L -26.513,0.145 c 0.326,3.054 1.536,5.349 3.651,6.876 2.095,1.528 5.621,2.268 10.609,2.25 C -4.066,9.235 0.019,6.651 0,1.536 Z m -92.494,-138.626 c -0.507,-2.875 -0.761,-5.423 -0.761,-7.682 -0.035,-5.095 0.904,-9.542 2.819,-13.337 1.916,-3.813 4.988,-7.012 9.236,-9.578 4.23,-2.567 9.777,-4.483 16.591,-5.748 6.814,-1.264 15.216,-1.916 25.156,-1.988 10.898,-0.035 20.188,0.688 27.849,2.169 7.627,1.5 13.88,3.832 18.815,6.976 4.896,3.145 8.656,7.121 11.259,11.91 2.584,4.79 4.392,10.355 5.384,16.699 L 44.82,1.925 c 0.308,1.436 0.469,2.764 0.488,3.994 0,1.22 0.018,2.448 0.018,3.686 0.017,5.106 -0.886,9.615 -2.711,13.509 -1.825,3.895 -4.825,7.175 -8.982,9.86 -4.157,2.683 -9.561,4.644 -16.246,5.919 -6.635,1.255 -14.874,1.906 -24.671,1.951 -10.914,0.063 -20.239,-0.651 -27.941,-2.159 -7.733,-1.501 -14.078,-3.814 -19.065,-6.967 -4.987,-3.146 -8.856,-7.113 -11.512,-11.91 -2.657,-4.789 -4.501,-10.356 -5.493,-16.691 z m 85.247,187.15 c 8.349,-0.045 16.609,-0.903 24.814,-2.575 8.187,-1.68 15.469,-4.581 21.868,-8.692 6.415,-4.13 11.601,-9.579 15.578,-16.347 3.975,-6.777 6.108,-15.172 6.38,-25.193 0,-1.635 -0.019,-3.226 -0.019,-4.762 -0.019,-1.527 -0.162,-3.018 -0.507,-4.446 L 40.156,-154.332 c -0.992,-7.355 -2.944,-13.734 -5.891,-19.138 -2.909,-5.404 -7.031,-9.886 -12.326,-13.446 -5.33,-3.562 -12.144,-6.235 -20.403,-8.024 -8.277,-1.79 -18.289,-2.675 -30.001,-2.621 -8.999,0.053 -17.728,0.958 -26.239,2.747 -8.531,1.771 -16.031,4.681 -22.61,8.711 -6.561,4.011 -11.837,9.253 -15.814,15.705 -3.993,6.47 -5.945,14.512 -5.91,24.127 0,3.073 0.272,6.036 0.761,8.891 L -77.314,4.681 c 0.995,7.147 3.037,13.482 6.109,18.994 3.072,5.503 7.409,10.084 12.957,13.744 5.567,3.65 12.523,6.435 20.894,8.332 8.348,1.906 18.397,2.828 30.107,2.773" /></g><g
           transform="translate(1342.8027,224.542)"
           id="g56"><path
             id="path58"
             style="fill:none;stroke:#000000;stroke-width:1;stroke-linecap:butt;stroke-linejoin:miter;stroke-miterlimit:10;stroke-dasharray:none;stroke-opacity:1"
             d="m 0,0 -20.223,-136.837 c -0.833,-5.929 -5.748,-8.892 -14.728,-8.82 -8.026,0.037 -12.038,2.386 -12.02,7.102 0.019,0.814 0.09,1.429 0.254,1.844 L -26.513,0.145 c 0.326,3.054 1.536,5.349 3.651,6.876 2.095,1.528 5.621,2.268 10.609,2.25 C -4.066,9.235 0.019,6.651 0,1.536 Z m -92.494,-138.626 c -0.507,-2.875 -0.761,-5.423 -0.761,-7.682 -0.035,-5.095 0.904,-9.542 2.819,-13.337 1.916,-3.813 4.988,-7.012 9.236,-9.578 4.23,-2.567 9.777,-4.483 16.591,-5.748 6.814,-1.264 15.216,-1.916 25.156,-1.988 10.898,-0.035 20.188,0.688 27.849,2.169 7.627,1.5 13.88,3.832 18.815,6.976 4.896,3.145 8.656,7.121 11.259,11.91 2.584,4.79 4.392,10.355 5.384,16.699 L 44.82,1.925 c 0.308,1.436 0.469,2.764 0.488,3.994 0,1.22 0.018,2.448 0.018,3.686 0.017,5.106 -0.886,9.615 -2.711,13.509 -1.825,3.895 -4.825,7.175 -8.982,9.86 -4.157,2.683 -9.561,4.644 -16.246,5.919 -6.635,1.255 -14.874,1.906 -24.671,1.951 -10.914,0.063 -20.239,-0.651 -27.941,-2.159 -7.733,-1.501 -14.078,-3.814 -19.065,-6.967 -4.987,-3.146 -8.856,-7.113 -11.512,-11.91 -2.657,-4.789 -4.501,-10.356 -5.493,-16.691 z m 85.247,187.15 c 8.349,-0.045 16.609,-0.903 24.814,-2.575 8.187,-1.68 15.469,-4.581 21.868,-8.692 6.415,-4.13 11.601,-9.579 15.578,-16.347 3.975,-6.777 6.108,-15.172 6.38,-25.193 0,-1.635 -0.019,-3.226 -0.019,-4.762 -0.019,-1.527 -0.162,-3.018 -0.507,-4.446 L 40.156,-154.332 c -0.992,-7.355 -2.944,-13.734 -5.891,-19.138 -2.909,-5.404 -7.031,-9.886 -12.326,-13.446 -5.33,-3.562 -12.144,-6.235 -20.403,-8.024 -8.277,-1.79 -18.289,-2.675 -30.001,-2.621 -8.999,0.053 -17.728,0.958 -26.239,2.747 -8.531,1.771 -16.031,4.681 -22.61,8.711 -6.561,4.011 -11.837,9.253 -15.814,15.705 -3.993,6.47 -5.945,14.512 -5.91,24.127 0,3.073 0.272,6.036 0.761,8.891 L -77.314,4.681 c 0.995,7.147 3.037,13.482 6.109,18.994 3.072,5.503 7.409,10.084 12.957,13.744 5.567,3.65 12.523,6.435 20.894,8.332 8.348,1.906 18.397,2.828 30.107,2.773 z" /></g><g
           transform="translate(1438.3691,264.2236)"
           id="g60"><path
             id="path62"
             style="fill:#ffffff;fill-opacity:1;fill-rule:nonzero;stroke:none"
             d="m 0,0 -4.48,-31.582 11.078,-0.054 -21.958,-153.616 -11.097,0.055 -4.717,-31.284 68.403,-0.326 4.484,31.266 -11.315,0.055 21.977,153.625 11.566,-0.055 4.481,31.591 z m 85.737,-7.789 -6.47,-44.767 -11.349,0.056 -18.941,-127.854 10.067,-12.632 -6.236,-44.459 -79.517,0.379 -11.73,12.959 6.74,46.301 11.079,-0.054 18.686,127.854 -9.813,11.087 6.508,46.609 80.927,-0.397 z" /></g><g
           transform="translate(1438.3691,264.2236)"
           id="g64"><path
             id="path66"
             style="fill:none;stroke:#000000;stroke-width:1;stroke-linecap:butt;stroke-linejoin:miter;stroke-miterlimit:10;stroke-dasharray:none;stroke-opacity:1"
             d="m 0,0 -4.48,-31.582 11.078,-0.054 -21.958,-153.616 -11.097,0.055 -4.717,-31.284 68.403,-0.326 4.484,31.266 -11.315,0.055 21.977,153.625 11.566,-0.055 4.481,31.591 z m 85.737,-7.789 -6.47,-44.767 -11.349,0.056 -18.941,-127.854 10.067,-12.632 -6.236,-44.459 -79.517,0.379 -11.73,12.959 6.74,46.301 11.079,-0.054 18.686,127.854 -9.813,11.087 6.508,46.609 80.927,-0.397 z" /></g><g
           transform="translate(1601.1133,91.8936)"
           id="g68"><path
             id="path70"
             style="fill:#ffffff;fill-opacity:1;fill-rule:nonzero;stroke:none"
             d="m 0,0 c -0.833,-5.313 -2.024,-8.928 -3.561,-10.879 -1.536,-1.917 -4.211,-2.892 -8.096,-2.856 l -10.338,0.036 22.193,153.616 10.121,-0.045 c 3.216,-0.009 5.42,-0.587 6.614,-1.717 1.194,-1.138 1.791,-3.127 1.772,-6 0,-0.813 -0.037,-1.635 -0.127,-2.449 -0.091,-0.822 -0.218,-1.734 -0.38,-2.756 z m -52.882,171.788 -4.499,-31.582 11.567,-0.062 -21.958,-153.608 -11.567,0.054 -4.499,-31.265 86.963,-0.434 c 6.436,-0.036 12.073,0.579 16.88,1.916 4.826,1.3 8.93,3.469 12.325,6.524 3.38,3.054 6.147,7.175 8.242,12.38 2.133,5.204 3.759,11.819 4.935,19.771 l 18.722,132.462 c 0.343,2.873 0.667,5.576 0.994,8.123 0.344,2.558 0.506,4.961 0.542,7.212 0.036,10.843 -2.548,18.217 -7.735,22.129 -5.204,3.904 -13.338,5.901 -24.434,5.955 z m 86.515,7.247 c 5.313,-0.018 10.789,-0.975 16.481,-2.847 5.694,-1.87 10.917,-4.816 15.634,-8.819 4.698,-4.012 8.584,-9.144 11.601,-15.406 3.019,-6.244 4.518,-13.78 4.464,-22.573 -0.037,-5.314 -0.469,-10.843 -1.301,-16.555 L 61.572,-19.627 c -1.337,-9 -3.18,-16.445 -5.531,-22.374 -2.366,-5.927 -5.42,-10.662 -9.234,-14.205 -3.778,-3.577 -8.368,-6.072 -13.771,-7.464 -5.386,-1.408 -11.694,-2.096 -18.904,-2.059 l -93.489,0.452 -11.729,12.958 6.489,46.301 11.567,-0.054 18.703,127.546 -10.302,11.404 6.706,46.601 z" /></g><g
           transform="translate(1601.1133,91.8936)"
           id="g72"><path
             id="path74"
             style="fill:none;stroke:#000000;stroke-width:1;stroke-linecap:butt;stroke-linejoin:miter;stroke-miterlimit:10;stroke-dasharray:none;stroke-opacity:1"
             d="m 0,0 c -0.833,-5.313 -2.024,-8.928 -3.561,-10.879 -1.536,-1.917 -4.211,-2.892 -8.096,-2.856 l -10.338,0.036 22.193,153.616 10.121,-0.045 c 3.216,-0.009 5.42,-0.587 6.614,-1.717 1.194,-1.138 1.791,-3.127 1.772,-6 0,-0.813 -0.037,-1.635 -0.127,-2.449 -0.091,-0.822 -0.218,-1.734 -0.38,-2.756 z m -52.882,171.788 -4.499,-31.582 11.567,-0.062 -21.958,-153.608 -11.567,0.054 -4.499,-31.265 86.963,-0.434 c 6.436,-0.036 12.073,0.579 16.88,1.916 4.826,1.3 8.93,3.469 12.325,6.524 3.38,3.054 6.147,7.175 8.242,12.38 2.133,5.204 3.759,11.819 4.935,19.771 l 18.722,132.462 c 0.343,2.873 0.667,5.576 0.994,8.123 0.344,2.558 0.506,4.961 0.542,7.212 0.036,10.843 -2.548,18.217 -7.735,22.129 -5.204,3.904 -13.338,5.901 -24.434,5.955 z m 86.515,7.247 c 5.313,-0.018 10.789,-0.975 16.481,-2.847 5.694,-1.87 10.917,-4.816 15.634,-8.819 4.698,-4.012 8.584,-9.144 11.601,-15.406 3.019,-6.244 4.518,-13.78 4.464,-22.573 -0.037,-5.314 -0.469,-10.843 -1.301,-16.555 L 61.572,-19.627 c -1.337,-9 -3.18,-16.445 -5.531,-22.374 -2.366,-5.927 -5.42,-10.662 -9.234,-14.205 -3.778,-3.577 -8.368,-6.072 -13.771,-7.464 -5.386,-1.408 -11.694,-2.096 -18.904,-2.059 l -93.489,0.452 -11.729,12.958 6.489,46.301 11.567,-0.054 18.703,127.546 -10.302,11.404 6.706,46.601 z" /></g><g
           transform="translate(1060.6016,322.3867)"
           id="g76"><path
             id="path78"
             style="fill:#ffffff;fill-opacity:1;fill-rule:nonzero;stroke:none"
             d="m 0,0 -663.018,-0.843 -84.941,-275.91 -70.551,0.345 L -834.432,0 l -13.752,0.061 6.42,45.129 97.041,-0.482 -6.402,-45.121 -11.379,0.06 -1.014,-208.204 61.6,207.903 -14.457,0.069 6.42,45.121 702.693,1.248 35.301,-0.396 61.652,-0.68 -6.402,-45.121 -11.377,0.06 -1.016,-208.204 61.602,207.903 -14.457,0.069 6.42,45.121 590.109,0.74 -6.42,-45.121 -536.771,-0.998 -84.922,-275.91 -70.57,0.345 z m -743.559,-19.836 10.309,-0.052 2.857,18.829 h 5.706 l 7.882,-20.12 -30.117,-100.732 z m 833.379,0 10.346,-0.052 2.822,18.829 h 6.739 l 7.865,-20.12 -29.098,-100.732 z M 717.932,56.18 116.939,55.534 114.082,34.501 100.07,55.621 33.117,56.18 l -750.594,-0.646 -2.857,-21.033 -14.01,21.12 -114.924,0.559 -9.294,-66.584 17.125,-18.925 14.957,-245.992 16.437,-21.503 77.584,0.604 84.924,275.902 640.496,0.989 14.975,-255.992 16.419,-21.503 77.6,-0.396 84.924,276.902 536.146,0.998 9.26,53.951 z" /></g><g
           transform="translate(1060.6016,322.3867)"
           id="g80"><path
             id="path82"
             style="fill:none;stroke:#000000;stroke-width:1;stroke-linecap:butt;stroke-linejoin:miter;stroke-miterlimit:10;stroke-dasharray:none;stroke-opacity:1"
             d="m 0,0 -663.018,-0.843 -84.941,-275.91 -70.551,0.345 L -834.432,0 l -13.752,0.061 6.42,45.129 97.041,-0.482 -6.402,-45.121 -11.379,0.06 -1.014,-208.204 61.6,207.903 -14.457,0.069 6.42,45.121 702.693,1.248 35.301,-0.396 61.652,-0.68 -6.402,-45.121 -11.377,0.06 -1.016,-208.204 61.602,207.903 -14.457,0.069 6.42,45.121 590.109,0.74 -6.42,-45.121 -536.771,-0.998 -84.922,-275.91 -70.57,0.345 z m -743.559,-19.836 10.309,-0.052 2.857,18.829 h 5.706 l 7.882,-20.12 -30.117,-100.732 z m 833.379,0 10.346,-0.052 2.822,18.829 h 6.739 l 7.865,-20.12 -29.098,-100.732 z M 717.932,56.18 116.939,55.534 114.082,34.501 100.07,55.621 33.117,56.18 l -750.594,-0.646 -2.857,-21.033 -14.01,21.12 -114.924,0.559 -9.294,-66.584 17.125,-18.925 14.957,-245.992 16.437,-21.503 77.584,0.604 84.924,275.902 640.496,0.989 14.975,-255.992 16.419,-21.503 77.6,-0.396 84.924,276.902 536.146,0.998 9.26,53.951 z" /></g></g></g></g></svg>